# xmcd
#
# Track frame offsets: 
#        150
#        15476
#        37475
#        57596
#        76369
#        93506
#        114205
#        129277
#        145248
#        163840
#        180468
#        194427
#        211236
#
# Disc length: 3067 seconds
#
# Revision: 0
# Processed by: cddbd v1.5.2PL0 Copyright (c) Steve Scherf et al.
# Submitted via: ExactAudioCopy v0.99pb4
#
DISCID=b30bf90d
DTITLE=Southland Blues Cd Compilation - Best of Southland Blues Bands 
DTITLE=Vol 1
DYEAR=2008
DGENRE=Blues
TTITLE0=Wiggle Room-Laurie Morvan Band
TTITLE1=Zig Zag Talk-Steve Fister
TTITLE2=In Time-Delgado Brothers
TTITLE3=Starting All Over-Michele Lundeen
TTITLE4=When I Die-Dennis Jones
TTITLE5=Hopless Sinner-Gino Matteo
TTITLE6=Fire in the Sky-Lisa Cee
TTITLE7=The Party's On-Jumpin Jack Benny Blues Band
TTITLE8=Free-Shari Purorto
TTITLE9=Come On-Chet and the Comittee
TTITLE10=Ghetto Women-Mama's Boys
TTITLE11=I am it again-D.A. and the Hitmen
TTITLE12=Let's Talk-Cisco Robles
EXTD=
EXTT0=
EXTT1=
EXTT2=
EXTT3=
EXTT4=
EXTT5=
EXTT6=
EXTT7=
EXTT8=
EXTT9=
EXTT10=
EXTT11=
EXTT12=
PLAYORDER=
